<svg xmlns="http://www.w3.org/2000/svg" fill="none" viewBox="0 0 128 120"><path fill="#1AAAFF" fill-rule="evenodd" d="M67 11.197a6 6 0 1 0-6 0v20.15A13.02 13.02 0 0 0 51.348 41H21c-5.523 0-10 4.477-10 10v17.153C4.77 69.115 0 74.5 0 81c0 6.5 4.77 11.885 11 12.847V110c0 5.523 4.477 10 10 10h86c5.523 0 10-4.477 10-10V93.847c6.23-.962 11-6.347 11-12.847 0-6.5-4.77-11.885-11-12.847V51c0-5.523-4.477-10-10-10H76.652A13.02 13.02 0 0 0 67 31.348v-20.15Zm50 78.58a9.003 9.003 0 0 0 0-17.554v17.554ZM4 81a9.003 9.003 0 0 1 7-8.777v17.554A9.003 9.003 0 0 1 4 81Zm60-46a9.004 9.004 0 0 1 8.488 6H55.512A9.004 9.004 0 0 1 64 35ZM21 45a6 6 0 0 0-6 6v59a6 6 0 0 0 6 6h86a6 6 0 0 0 6-6V51a6 6 0 0 0-6-6H21Zm8 53a3 3 0 1 0 0 6h70a3 3 0 1 0 0-6H29Zm72.956-28.47A2.5 2.5 0 1 1 97 70h-.022a5.5 5.5 0 0 0-10.956 0H86a2.5 2.5 0 1 1-4.956-.471C81.534 64.185 86.028 60 91.5 60c5.472 0 9.966 4.185 10.456 9.53ZM47 70c0-.16-.015-.318-.044-.47C46.466 64.184 41.972 60 36.5 60c-5.471 0-9.965 4.185-10.456 9.529A2.5 2.5 0 1 0 31 70h.023a5.5 5.5 0 0 1 10.955 0H42a2.5 2.5 0 0 0 5 0Z" clip-rule="evenodd"/></svg>